<svg width="256" height="256" viewBox="0 0 256 256" xmlns="http://www.w3.org/2000/svg">
  <!-- Background -->
  <rect width="256" height="256" fill="#0a0a0a"/>
  
  <!-- Terminal frame -->
  <rect x="32" y="48" width="192" height="144" fill="#1a1a1a" stroke="#00ff00" stroke-width="2" rx="8"/>
  
  <!-- Terminal header -->
  <rect x="32" y="48" width="192" height="24" fill="#00ff00"/>
  
  <!-- Terminal dots -->
  <circle cx="48" cy="60" r="4" fill="#0a0a0a"/>
  <circle cx="64" cy="60" r="4" fill="#0a0a0a"/>
  <circle cx="80" cy="60" r="4" fill="#0a0a0a"/>
  
  <!-- Terminal content lines -->
  <rect x="48" y="88" width="80" height="2" fill="#00ff00"/>
  <rect x="48" y="104" width="120" height="2" fill="#00ff00"/>
  <rect x="48" y="120" width="64" height="2" fill="#00ff00"/>
  <rect x="48" y="136" width="96" height="2" fill="#00ff00"/>
  <rect x="48" y="152" width="40" height="2" fill="#00ff00"/>
  
  <!-- Cursor -->
  <rect x="96" y="152" width="8" height="12" fill="#00ff00"/>
  
  <!-- Deploy arrow/rocket -->
  <path d="M160 208 L180 188 L175 193 L190 178 L185 173 L200 158 L128 158 L128 208 Z" fill="#00ff00"/>
  
  <!-- Text -->
  <text x="128" y="240" font-family="monospace" font-size="12" font-weight="bold" text-anchor="middle" fill="#00ff00">DEPLOYBOT</text>
</svg>
